<?xml version="1.0" encoding="UTF-8"?>
<svg id="Layer_1" xmlns="http://www.w3.org/2000/svg" width="16" height="16" version="1.1" viewBox="0 0 16 16">
    <path d="M7.95.8c-.08,0-.15.03-.21.09-.62.65-.99,1.51-1.03,2.41.04.9.41,1.76,1.03,2.41l.28.28.42.41,1.59,1.59-1.59,1.59.24.24c.74.77,1.17,1.78,1.22,2.86,0,.27-.03.53-.09.8l4.83-4.83c.37-.37.37-.96,0-1.33L8.19.89c-.07-.06-.15-.09-.24-.09ZM6.18,2.51L1.36,7.33c-.37.37-.37.96,0,1.33l6.44,6.44c.12.12.32.12.44,0,.62-.65.99-1.51,1.03-2.41-.04-.9-.41-1.76-1.03-2.41l-2.28-2.28,1.59-1.59-.24-.24c-.74-.77-1.17-1.78-1.22-2.86,0-.27.03-.53.09-.8h-.01Z"
          fill="#FFFFFF"/>
</svg>